<svg width="159" height="80" viewBox="0 0 159 80" fill="none" xmlns="http://www.w3.org/2000/svg">
<path fill-rule="evenodd" clip-rule="evenodd" d="M129.764 13.0102C124.642 13.5734 119.64 15.1457 116.093 17.3065C114.332 18.3797 112.132 20.0355 112.238 20.21C112.291 20.2977 112.233 20.3306 112.109 20.2817C111.607 20.0861 106.447 25.9252 106.722 26.3779C106.79 26.4901 106.766 26.5272 106.665 26.4648C105.732 25.878 101.939 35.0953 101.155 39.8552C100.628 43.0488 98.1108 45.2593 94.1258 46.0282C93.669 46.1159 88.7371 46.1917 83.1668 46.196C73.3147 46.2035 73.0477 46.2128 73.3735 46.5281C74.866 47.9706 80.3891 52.234 80.3891 52.234C80.3891 52.234 80.5301 52.3023 80.4795 52.2863C80.4288 52.2702 81.5366 53.4421 82.9587 54.6401C85.2115 56.5387 85.568 56.9097 85.7264 57.5217C87.1658 63.0725 89.4684 68.4563 91.9941 72.1734C93.0778 73.7685 95.5081 76.2859 95.8389 76.1569C95.9691 76.1063 96.057 76.1561 96.0337 76.2682C96.0114 76.3803 96.605 76.7926 97.3538 77.1838L98.7136 77.8962L106.586 77.9451L114.459 77.994L112.913 77.0093C110.071 75.1967 107.907 73.288 105.866 70.7899C105.192 69.9646 104.58 69.2632 104.505 69.2311C104.431 69.1991 104.371 69.103 104.371 69.017C104.371 68.9318 104.024 68.3164 103.601 67.6504C102.013 65.1557 100.218 61.0382 99.5287 58.3125C99.2932 57.3793 99.0809 57.1112 98.0561 56.4527C97.1017 55.839 97.0594 55.5017 97.9375 55.5017C100.852 55.5017 106.454 52.6117 109.049 49.7689C110.172 48.5388 112.398 44.9634 112.041 44.9634C111.979 44.9634 112.006 44.8647 112.1 44.7442C112.194 44.6236 112.32 44.0107 112.381 43.3826C112.685 40.2287 113.936 36.5959 115.717 33.7017C116.114 33.0559 116.386 32.4674 116.322 32.3941C116.257 32.3216 116.293 32.3131 116.401 32.3764C116.587 32.4843 116.896 32.0366 116.836 31.7466C116.821 31.6741 116.871 31.6345 116.947 31.6589C117.162 31.7272 118.198 30.4542 118.057 30.2948C117.987 30.2173 118.018 30.2038 118.124 30.2653C118.362 30.4036 118.932 29.7974 118.752 29.5968C118.681 29.5167 118.715 29.5049 118.828 29.5706C118.945 29.6398 119.405 29.3557 119.9 28.9097C126.812 22.6667 140.346 22.7241 148.012 29.0294C149.199 30.0065 149.525 30.1953 149.725 30.0267C149.861 29.9129 149.921 29.7367 149.86 29.6364C149.799 29.5352 149.824 29.5007 149.917 29.5588C150.215 29.746 157.356 22.5184 157.066 22.3228C156.928 22.23 156.741 22.2005 156.651 22.257C156.56 22.3143 156.537 22.2756 156.6 22.1727C156.749 21.9265 154.448 19.8163 154.156 19.931C154.031 19.979 153.972 19.9512 154.022 19.8678C154.2 19.5761 150.253 16.9499 149.936 17.1497C149.829 17.2163 149.798 17.186 149.864 17.078C150.039 16.7906 146.499 15.1398 143.929 14.3102C139.89 13.006 134.387 12.501 129.764 13.0102ZM111.292 51.4769C109.294 53.7465 106.726 55.581 103.759 56.8574C102.956 57.2031 102.298 57.5462 102.298 57.6187C102.298 58.106 103.694 61.7405 104.553 63.494C108.086 70.693 115.077 76.4486 122.768 78.4889C134.052 81.4817 145.039 79.9946 153.456 74.3325C155.36 73.0511 158.151 70.6829 158.059 70.4249C158.031 70.344 156.233 68.4538 154.064 66.2247L150.119 62.1721L149.313 62.8938C143.342 68.243 133.946 70.0615 125.964 67.4135C118.874 65.0613 114.293 59.6024 112.678 51.5857L112.403 50.2157L111.292 51.4769Z" fill="#286693"/>
<path d="M46.3295 78.5066L52.462 78.5099L53.6187 75.6561C54.2555 74.0863 55.1344 71.9332 55.573 70.8709C56.0108 69.8078 56.602 68.3459 56.8856 67.6209C57.1692 66.8967 57.5058 66.0671 57.6335 65.7771C57.7612 65.487 58.5074 63.6694 59.2918 61.7371C62.3108 54.2995 64.5446 48.8128 65.5852 46.2811C66.1797 44.8319 67.775 40.9192 69.129 37.5865C70.4831 34.2539 72.1091 30.2628 72.7417 28.7175L73.8926 25.9067L83.1286 25.8535C96.4201 25.7777 98.0212 26.2144 100.917 30.7096C101.169 31.1008 101.208 31.0485 102.292 28.8608C103.511 26.4041 104.665 24.5864 106.426 22.3506C107.804 20.6012 107.791 20.6552 106.53 19.727C105.269 18.7988 101.822 16.6405 98.9449 15.8219C95.542 14.854 95.3024 14.8414 79.676 14.8414H65.2593L63.907 18.3545C63.1624 20.2868 62.0928 23.0731 61.5289 24.5476C60.9651 26.0213 60.0422 28.4325 59.4776 29.9045C58.9129 31.3765 57.6999 34.5574 56.7803 36.9719C54.9354 41.8213 53.0847 46.6571 51.9421 49.618C51.1594 51.6456 47.2963 61.6991 47.2963 61.6991L46.502 63.9383L46.3295 78.5066Z" fill="#286693"/>
<path fill-rule="evenodd" clip-rule="evenodd" d="M36.1705 32.9659C32.7604 29.4021 25.9112 25.1847 15.6224 20.3141C8.83137 17.1066 4.45937 11.4044 2.44832 3.20752C2.21524 1.90088 1.92367 0.950283 1.57389 0.356421C1.34086 0.237507 1.10746 0.118914 0.874375 0C0.291563 0 0 1.30663 0 3.9203C0.932599 9.6225 2.21524 15.2654 3.84735 20.8487C6.87842 31.5404 10.2011 39.3216 13.8154 44.1922C16.6134 47.875 20.4026 50.9635 25.1824 53.4582C34.9756 58.5666 41.1546 63.2589 43.7196 67.5356C45.0019 70.0303 45.8181 72.5843 46.1679 75.1979C46.1679 76.1482 46.226 76.8315 46.3427 77.2471C46.4594 77.6628 46.6925 78.049 47.0423 78.4054C47.2753 77.9301 47.5087 77.1282 47.7418 75.9998C47.9748 74.8713 48.0915 73.8912 48.0915 73.0595C48.0915 72.1093 48.0915 71.3966 48.0915 70.9212C48.0915 64.6252 47.0715 57.6756 45.0311 50.0725C42.9619 42.4695 40.0179 36.7672 36.1705 32.9659Z" fill="url(#paint0_radial_9_19)"/>
<defs>
<radialGradient id="paint0_radial_9_19" cx="0" cy="0" r="1" gradientUnits="userSpaceOnUse" gradientTransform="translate(24.4052 39.9115) rotate(52.7101) scale(39.2041 23.0811)">
<stop stop-color="#2BA4C4"/>
<stop offset="1" stop-color="#0FB296" stop-opacity="0.99"/>
</radialGradient>
</defs>
</svg>
